<svg version="1.1" id="Layer_1" xmlns="http://www.w3.org/2000/svg" xmlns:xlink="http://www.w3.org/1999/xlink" x="0px" y="0px"
	 width="100%" viewBox="0 0 387 356" enable-background="new 0 0 387 356" xml:space="preserve">
<path fill="#4D6970" opacity="1.000000" stroke="none" 
	d="
M230.000000,357.000000 
	C153.358963,357.000000 77.217911,357.000000 1.038435,357.000000 
	C1.038435,238.398895 1.038435,119.797760 1.038435,1.098315 
	C129.890991,1.098315 258.782104,1.098315 387.836609,1.098315 
	C387.836609,119.666489 387.836609,238.333221 387.836609,357.000000 
	C335.464508,357.000000 282.982239,357.000000 230.000000,357.000000 
M115.728928,348.001404 
	C132.744247,347.004791 149.758560,345.990662 166.775223,345.017517 
	C179.005890,344.318024 191.237991,343.640717 203.472488,343.012634 
	C217.202286,342.307800 230.936386,341.687012 244.666962,340.997070 
	C257.400574,340.357269 270.131165,339.657593 282.864624,339.014557 
	C303.045441,337.995422 323.232361,337.087402 343.406525,335.951355 
	C350.651642,335.543427 357.890564,334.790436 365.087219,333.849854 
	C369.119843,333.322845 372.295593,331.014496 373.123749,326.784515 
	C373.818237,323.237244 374.238708,319.574707 374.241486,315.962769 
	C374.295593,245.969955 374.351624,175.976944 374.216858,105.984322 
	C374.170410,81.875237 373.618103,57.767006 373.271942,33.658745 
	C373.205048,29.001299 369.749115,24.240602 365.532379,23.217901 
	C362.979492,22.598730 360.335480,22.174906 357.713806,22.048050 
	C335.703064,20.982998 313.685669,20.055492 291.675232,18.984127 
	C280.436890,18.437092 269.210052,17.656691 257.975677,17.023468 
	C239.794907,15.998713 221.611237,15.025177 203.430634,13.997162 
	C192.362564,13.371325 181.299347,12.660329 170.231552,12.029415 
	C152.217545,11.002534 134.200699,10.025053 116.186745,8.997224 
	C105.119186,8.365738 94.061707,7.510401 82.987389,7.054815 
	C63.428078,6.250165 43.856743,5.738881 24.296631,4.951178 
	C20.044462,4.779940 17.713137,7.106606 16.430672,10.460969 
	C15.517740,12.848793 15.333805,15.629601 15.332581,18.235268 
	C15.282191,125.390991 15.289424,232.546738 15.289853,339.702484 
	C15.289858,340.869019 15.236077,342.039337 15.309484,343.201447 
	C15.700498,349.391602 19.404146,353.084229 25.536818,352.956512 
	C33.323044,352.794434 41.104012,352.354279 48.885506,351.996277 
	C63.118279,351.341553 77.355331,350.756989 91.579590,349.949219 
	C99.325211,349.509430 107.048210,348.671265 115.728928,348.001404 
z"/>
<path fill="#FE851B" opacity="1.000000" stroke="none" 
	d="
M115.255173,348.007080 
	C107.048210,348.671265 99.325211,349.509430 91.579590,349.949219 
	C77.355331,350.756989 63.118279,351.341553 48.885506,351.996277 
	C41.104012,352.354279 33.323044,352.794434 25.536818,352.956512 
	C19.404146,353.084229 15.700498,349.391602 15.309484,343.201447 
	C15.236077,342.039337 15.289858,340.869019 15.289853,339.702484 
	C15.289424,232.546738 15.282191,125.390991 15.332581,18.235268 
	C15.333805,15.629601 15.517740,12.848793 16.430672,10.460969 
	C17.713137,7.106606 20.044462,4.779940 24.296631,4.951178 
	C43.856743,5.738881 63.428078,6.250165 82.987389,7.054815 
	C94.061707,7.510401 105.119186,8.365738 116.186745,8.997224 
	C134.200699,10.025053 152.217545,11.002534 170.231552,12.029415 
	C181.299347,12.660329 192.362564,13.371325 203.430634,13.997162 
	C221.611237,15.025177 239.794907,15.998713 257.975677,17.023468 
	C269.210052,17.656691 280.436890,18.437092 291.675232,18.984127 
	C313.685669,20.055492 335.703064,20.982998 357.713806,22.048050 
	C360.335480,22.174906 362.979492,22.598730 365.532379,23.217901 
	C369.749115,24.240602 373.205048,29.001299 373.271942,33.658745 
	C373.618103,57.767006 374.170410,81.875237 374.216858,105.984322 
	C374.351624,175.976944 374.295593,245.969955 374.241486,315.962769 
	C374.238708,319.574707 373.818237,323.237244 373.123749,326.784515 
	C372.295593,331.014496 369.119843,333.322845 365.087219,333.849854 
	C357.890564,334.790436 350.651642,335.543427 343.406525,335.951355 
	C323.232361,337.087402 303.045441,337.995422 282.864624,339.014557 
	C270.131165,339.657593 257.400574,340.357269 244.666962,340.997070 
	C230.936386,341.687012 217.202286,342.307800 203.472488,343.012634 
	C191.237991,343.640717 179.005890,344.318024 166.775223,345.017517 
	C149.758560,345.990662 132.744247,347.004791 115.255173,348.007080 
M180.027954,97.722702 
	C177.360245,101.527962 174.692520,105.333221 171.614410,109.723869 
	C171.085251,109.559998 169.550354,109.424385 168.416885,108.678619 
	C160.936737,103.757080 157.792023,104.445709 152.528915,111.779297 
	C151.173584,113.667831 149.004868,115.149963 146.923599,116.301521 
	C143.148209,118.390419 139.044388,119.973305 139.877945,125.546074 
	C139.947906,126.013832 139.126175,126.589737 138.773285,127.149773 
	C133.920593,134.851242 125.077332,134.038345 117.978226,136.971954 
	C112.694237,139.155487 107.558189,141.697998 102.372658,144.115814 
	C102.134254,144.226959 101.931747,144.680450 101.923492,144.980316 
	C101.781967,150.121780 98.452904,155.084091 101.392410,160.473007 
	C102.111755,161.791763 101.288940,163.951721 101.093300,167.000397 
	C103.471893,173.869263 106.203224,182.181229 109.245361,190.377823 
	C110.987206,195.070969 112.079437,199.446625 108.713539,203.954742 
	C108.065002,204.823364 108.159431,207.041245 108.832230,207.968048 
	C112.235512,212.656189 119.705185,213.802109 124.858543,210.939514 
	C128.101959,209.137848 131.395813,206.906982 134.923416,206.254333 
	C140.747833,205.176727 147.627213,208.014435 151.587372,201.017578 
	C151.652603,200.902298 151.877579,200.862564 152.036469,200.817276 
	C160.270065,198.471069 168.392670,195.439987 176.786179,194.074890 
	C180.984818,193.392029 185.716095,195.605820 190.138107,196.769318 
	C195.858307,198.274399 198.011398,203.084732 200.050415,207.972061 
	C200.736084,209.615555 201.769104,211.114120 202.667725,212.722534 
	C205.250977,209.837891 207.105621,207.766846 208.960266,205.695801 
	C209.462601,206.045486 209.964951,206.395157 210.467285,206.744843 
	C209.477585,208.706985 208.487900,210.669128 207.198166,213.226120 
	C209.169189,214.067413 211.554413,216.075592 213.564926,215.752441 
	C218.950714,214.886749 220.312317,217.642288 220.792297,221.955551 
	C221.339355,226.871475 224.283005,230.144150 228.862198,230.941116 
	C233.717773,231.786148 238.624603,235.798203 243.852936,231.465515 
	C244.435196,230.983002 246.602676,232.023163 247.785690,232.758331 
	C249.150177,233.606247 250.237976,234.899460 250.477097,235.117172 
	C255.864014,232.565308 260.662476,230.617889 265.090698,228.035568 
	C266.883087,226.990372 268.267426,224.735352 269.148651,222.728409 
	C272.502777,215.089584 275.567749,207.324036 278.757477,199.612762 
	C280.143463,196.262146 281.584473,192.934326 282.975220,189.585663 
	C287.211700,179.384628 281.236572,168.924362 284.229736,158.626740 
	C282.602753,158.538574 280.913086,158.940811 280.393433,158.336685 
	C277.554840,155.036667 274.986725,151.502121 272.367462,148.016769 
	C271.798218,147.259323 271.470734,145.710678 270.911774,145.650986 
	C266.205109,145.148285 266.393433,140.400848 263.981415,137.962448 
	C262.569580,136.535172 261.224457,135.035675 259.744568,133.683319 
	C256.973572,131.151154 253.214279,129.195114 251.539658,126.095299 
	C249.401230,122.136932 249.040207,117.245735 247.662704,112.834785 
	C247.147079,111.183716 246.159348,108.652603 244.990311,108.406502 
	C239.154953,107.178078 239.262360,102.003723 237.517273,98.103027 
	C236.402451,95.611145 235.655350,92.954750 234.414154,89.439735 
	C232.932907,91.462914 231.482864,92.621017 231.160431,94.036064 
	C230.140381,98.512550 229.571518,103.090347 228.772095,107.619064 
	C228.025284,111.849609 227.386597,116.114716 226.298218,120.259003 
	C226.013107,121.344612 224.286896,122.641426 223.126236,122.743179 
	C221.942657,122.846931 220.640549,121.598831 219.348907,120.920860 
	C220.374023,119.638550 221.095779,118.735710 222.153137,117.413055 
	C217.268173,118.256813 217.268753,118.255539 210.537857,115.164207 
	C210.238098,115.026535 209.908798,114.954010 209.595230,114.845421 
	C203.563522,112.756737 202.255173,109.139107 205.671844,103.935539 
	C206.032959,103.385536 206.780945,102.985008 206.917267,102.412262 
	C207.273270,100.916451 208.062805,98.906639 207.418640,97.957329 
	C206.725037,96.935150 204.627335,96.729156 203.090851,96.441811 
	C198.948517,95.667145 194.771317,95.080475 190.623398,94.333397 
	C188.729919,93.992371 186.872787,93.449348 184.120087,93.010696 
	C182.797943,92.994873 181.403854,92.708061 180.172653,93.034859 
	C178.772614,93.406456 177.518112,94.326309 176.200348,95.007835 
	C177.466553,95.671967 178.732773,96.336105 180.027954,97.722702 
M247.138245,244.727417 
	C246.009964,245.212784 243.870255,246.054626 243.897766,246.132629 
	C245.726624,251.321655 247.546402,256.535828 249.889481,261.501251 
	C250.307495,262.387115 253.345276,262.993042 254.511566,262.408264 
	C260.346619,259.482605 262.682678,251.506836 260.180847,245.894318 
	C255.855453,245.562759 251.877228,245.257828 247.138245,244.727417 
z"/>
<path fill="#020100" opacity="1.000000" stroke="none" 
	d="
M184.999176,92.997948 
	C186.872787,93.449348 188.729919,93.992371 190.623398,94.333397 
	C194.771317,95.080475 198.948517,95.667145 203.090851,96.441811 
	C204.627335,96.729156 206.725037,96.935150 207.418640,97.957329 
	C208.062805,98.906639 207.273270,100.916451 206.917267,102.412262 
	C206.780945,102.985008 206.032959,103.385536 205.671844,103.935539 
	C202.255173,109.139107 203.563522,112.756737 209.595230,114.845421 
	C209.908798,114.954010 210.238098,115.026535 210.537857,115.164207 
	C217.268753,118.255539 217.268173,118.256813 222.153137,117.413055 
	C221.095779,118.735710 220.374023,119.638550 219.348907,120.920860 
	C220.640549,121.598831 221.942657,122.846931 223.126236,122.743179 
	C224.286896,122.641426 226.013107,121.344612 226.298218,120.259003 
	C227.386597,116.114716 228.025284,111.849609 228.772095,107.619064 
	C229.571518,103.090347 230.140381,98.512550 231.160431,94.036064 
	C231.482864,92.621017 232.932907,91.462914 234.414154,89.439735 
	C235.655350,92.954750 236.402451,95.611145 237.517273,98.103027 
	C239.262360,102.003723 239.154953,107.178078 244.990311,108.406502 
	C246.159348,108.652603 247.147079,111.183716 247.662704,112.834785 
	C249.040207,117.245735 249.401230,122.136932 251.539658,126.095299 
	C253.214279,129.195114 256.973572,131.151154 259.744568,133.683319 
	C261.224457,135.035675 262.569580,136.535172 263.981415,137.962448 
	C266.393433,140.400848 266.205109,145.148285 270.911774,145.650986 
	C271.470734,145.710678 271.798218,147.259323 272.367462,148.016769 
	C274.986725,151.502121 277.554840,155.036667 280.393433,158.336685 
	C280.913086,158.940811 282.602753,158.538574 284.229736,158.626740 
	C281.236572,168.924362 287.211700,179.384628 282.975220,189.585663 
	C281.584473,192.934326 280.143463,196.262146 278.757477,199.612762 
	C275.567749,207.324036 272.502777,215.089584 269.148651,222.728409 
	C268.267426,224.735352 266.883087,226.990372 265.090698,228.035568 
	C260.662476,230.617889 255.864014,232.565308 250.477097,235.117172 
	C250.237976,234.899460 249.150177,233.606247 247.785690,232.758331 
	C246.602676,232.023163 244.435196,230.983002 243.852936,231.465515 
	C238.624603,235.798203 233.717773,231.786148 228.862198,230.941116 
	C224.283005,230.144150 221.339355,226.871475 220.792297,221.955551 
	C220.312317,217.642288 218.950714,214.886749 213.564926,215.752441 
	C211.554413,216.075592 209.169189,214.067413 207.198166,213.226120 
	C208.487900,210.669128 209.477585,208.706985 210.467285,206.744843 
	C209.964951,206.395157 209.462601,206.045486 208.960266,205.695801 
	C207.105621,207.766846 205.250977,209.837891 202.667725,212.722534 
	C201.769104,211.114120 200.736084,209.615555 200.050415,207.972061 
	C198.011398,203.084732 195.858307,198.274399 190.138107,196.769318 
	C185.716095,195.605820 180.984818,193.392029 176.786179,194.074890 
	C168.392670,195.439987 160.270065,198.471069 152.036469,200.817276 
	C151.877579,200.862564 151.652603,200.902298 151.587372,201.017578 
	C147.627213,208.014435 140.747833,205.176727 134.923416,206.254333 
	C131.395813,206.906982 128.101959,209.137848 124.858543,210.939514 
	C119.705185,213.802109 112.235512,212.656189 108.832230,207.968048 
	C108.159431,207.041245 108.065002,204.823364 108.713539,203.954742 
	C112.079437,199.446625 110.987206,195.070969 109.245361,190.377823 
	C106.203224,182.181229 103.471893,173.869263 101.093300,167.000397 
	C101.288940,163.951721 102.111755,161.791763 101.392410,160.473007 
	C98.452904,155.084091 101.781967,150.121780 101.923492,144.980316 
	C101.931747,144.680450 102.134254,144.226959 102.372658,144.115814 
	C107.558189,141.697998 112.694237,139.155487 117.978226,136.971954 
	C125.077332,134.038345 133.920593,134.851242 138.773285,127.149773 
	C139.126175,126.589737 139.947906,126.013832 139.877945,125.546074 
	C139.044388,119.973305 143.148209,118.390419 146.923599,116.301521 
	C149.004868,115.149963 151.173584,113.667831 152.528915,111.779297 
	C157.792023,104.445709 160.936737,103.757080 168.416885,108.678619 
	C169.550354,109.424385 171.085251,109.559998 171.614410,109.723869 
	C174.692520,105.333221 177.360245,101.527962 180.363831,97.379265 
	C182.895737,97.035828 185.091782,97.035828 187.564423,97.035828 
	C186.661774,95.614990 185.830475,94.306465 184.999176,92.997948 
z"/>
<path fill="#0D0701" opacity="1.000000" stroke="none" 
	d="
M247.518616,244.840149 
	C251.877228,245.257828 255.855453,245.562759 260.180847,245.894318 
	C262.682678,251.506836 260.346619,259.482605 254.511566,262.408264 
	C253.345276,262.993042 250.307495,262.387115 249.889481,261.501251 
	C247.546402,256.535828 245.726624,251.321655 243.897766,246.132629 
	C243.870255,246.054626 246.009964,245.212784 247.518616,244.840149 
z"/>
<path fill="#2A1604" opacity="1.000000" stroke="none" 
	d="
M184.559631,93.004318 
	C185.830475,94.306465 186.661774,95.614990 187.564423,97.035828 
	C185.091782,97.035828 182.895737,97.035828 180.349335,97.018036 
	C178.732773,96.336105 177.466553,95.671967 176.200348,95.007835 
	C177.518112,94.326309 178.772614,93.406456 180.172653,93.034859 
	C181.403854,92.708061 182.797943,92.994873 184.559631,93.004318 
z"/>
</svg>